{
    "asset" : {
        "generator" : "Khronos glTF Blender I/O v1.8.19",
        "version" : "2.0"
    },
    "scene" : 0,
    "scenes" : [
        {
            "name" : "Scene",
            "nodes" : [
                0
            ]
        }
    ],
    "nodes" : [
        {
            "mesh" : 0,
            "name" : "Leather_Glove_msh",
            "rotation" : [
                0.7071068286895752,
                0,
                0,
                0.7071067094802856
            ]
        }
    ],
    "materials" : [
        {
            "doubleSided" : true,
            "emissiveFactor" : [
                1,
                1,
                1
            ],
            "emissiveTexture" : {
                "index" : 0
            },
            "name" : "Leather_glove_shd",
            "normalTexture" : {
                "index" : 1
            },
            "pbrMetallicRoughness" : {
                "baseColorTexture" : {
                    "index" : 2
                },
                "metallicRoughnessTexture" : {
                    "index" : 3
                }
            }
        }
    ],
    "meshes" : [
        {
            "name" : "Merged_Gloves_LOW.004",
            "primitives" : [
                {
                    "attributes" : {
                        "POSITION" : 0,
                        "NORMAL" : 1,
                        "TEXCOORD_0" : 2
                    },
                    "indices" : 3,
                    "material" : 0
                }
            ]
        }
    ],
    "textures" : [
        {
            "sampler" : 0,
            "source" : 0
        },
        {
            "sampler" : 0,
            "source" : 1
        },
        {
            "sampler" : 0,
            "source" : 2
        },
        {
            "sampler" : 0,
            "source" : 3
        }
    ],
    "images" : [
        {
            "mimeType" : "image/png",
            "name" : "Gloves_Emissive",
            "uri" : "Gloves_Emissive.png"
        },
        {
            "mimeType" : "image/png",
            "name" : "Gloves_Normal_OpenGL",
            "uri" : "Gloves_Normal_OpenGL.png"
        },
        {
            "mimeType" : "image/png",
            "name" : "Gloves_Base_color",
            "uri" : "Gloves_Base_color.png"
        },
        {
            "mimeType" : "image/png",
            "name" : "Gloves_Metallic-Gloves_Roughness",
            "uri" : "Gloves_Metallic-Gloves_Roughness.png"
        }
    ],
    "accessors" : [
        {
            "bufferView" : 0,
            "componentType" : 5126,
            "count" : 22736,
            "max" : [
                0.7291449904441833,
                0.5579259991645813,
                -9.958252906799316
            ],
            "min" : [
                -1.1704219579696655,
                -0.8483200073242188,
                -12.299361228942871
            ],
            "type" : "VEC3"
        },
        {
            "bufferView" : 1,
            "componentType" : 5126,
            "count" : 22736,
            "type" : "VEC3"
        },
        {
            "bufferView" : 2,
            "componentType" : 5126,
            "count" : 22736,
            "type" : "VEC2"
        },
        {
            "bufferView" : 3,
            "componentType" : 5123,
            "count" : 125730,
            "type" : "SCALAR"
        }
    ],
    "bufferViews" : [
        {
            "buffer" : 0,
            "byteLength" : 272832,
            "byteOffset" : 0
        },
        {
            "buffer" : 0,
            "byteLength" : 272832,
            "byteOffset" : 272832
        },
        {
            "buffer" : 0,
            "byteLength" : 181888,
            "byteOffset" : 545664
        },
        {
            "buffer" : 0,
            "byteLength" : 251460,
            "byteOffset" : 727552
        }
    ],
    "samplers" : [
        {
            "magFilter" : 9729,
            "minFilter" : 9987
        }
    ],
    "buffers" : [
        {
            "byteLength" : 979012,
            "uri" : "Gloves_TEST.bin"
        }
    ]
}
